<svg id="Layer_1" data-name="Layer 1" xmlns="http://www.w3.org/2000/svg" viewBox="0 0 256.52 17.63"><defs><style>.cls-1{fill:#212121;}.cls-2{fill:#74bd83;}</style></defs><title>chc-logo</title><path class="cls-1" d="M45.06,12.3l1.58,1.34A9.12,9.12,0,0,1,45,15a9,9,0,0,1-4.57,1.07,8.3,8.3,0,0,1-5.75-1.89,6.73,6.73,0,0,1-2-5.28A7.13,7.13,0,0,1,34.55,3.6a7.72,7.72,0,0,1,5.71-2,9.54,9.54,0,0,1,3.48.58A7.78,7.78,0,0,1,46.47,4L45,5.37a6,6,0,0,0-4.58-1.85,5.4,5.4,0,0,0-4.16,1.55,5.4,5.4,0,0,0-1.3,3.83,5.09,5.09,0,0,0,1.23,3.64,5.69,5.69,0,0,0,4.35,1.56A5.77,5.77,0,0,0,45.06,12.3Z"/><path class="cls-1" d="M56.2,15.81l-.13-1.21a4.27,4.27,0,0,1-1.68,1.07A6.63,6.63,0,0,1,52.1,16a5.09,5.09,0,0,1-3.71-1.29,4.82,4.82,0,0,1-1.33-3.6,4.82,4.82,0,0,1,1.33-3.6,5.06,5.06,0,0,1,3.69-1.29,5.28,5.28,0,0,1,3.81,1.3L56,6.5h1.91v9.31ZM52.51,8.09A3.34,3.34,0,0,0,50,9a3,3,0,0,0-.78,2.16A3,3,0,0,0,50,13.33a3.38,3.38,0,0,0,2.51.89A3.31,3.31,0,0,0,55,13.33a2.93,2.93,0,0,0,.79-2.13A3,3,0,0,0,55,9,3.32,3.32,0,0,0,52.51,8.09Z"/><path class="cls-1" d="M60,15.81V6.5h1.91l.09.93a5.2,5.2,0,0,1,3.63-1.17A4.07,4.07,0,0,1,69.3,7.84,3.22,3.22,0,0,1,69.75,9a10.15,10.15,0,0,1,.13,1.84v5h-2.1V11.1a3.75,3.75,0,0,0-.42-2,2.55,2.55,0,0,0-2.31-1,2.82,2.82,0,0,0-2.47,1,4.3,4.3,0,0,0-.48,2.37v4.33Z"/><path class="cls-1" d="M80.46,15.81l-.13-1.21a4.27,4.27,0,0,1-1.68,1.07,6.63,6.63,0,0,1-2.29.37,5.09,5.09,0,0,1-3.71-1.29,4.82,4.82,0,0,1-1.33-3.6,4.82,4.82,0,0,1,1.33-3.6,5.06,5.06,0,0,1,3.69-1.29,5.28,5.28,0,0,1,3.81,1.3l.1-1.07h1.91v9.31ZM76.77,8.09a3.34,3.34,0,0,0-2.5.9,3,3,0,0,0-.78,2.16,3,3,0,0,0,.78,2.17,3.38,3.38,0,0,0,2.51.89,3.31,3.31,0,0,0,2.49-.89,2.93,2.93,0,0,0,.79-2.13A3,3,0,0,0,79.27,9,3.32,3.32,0,0,0,76.77,8.09Z"/><path class="cls-1" d="M84.28,15.81v-14h2.1v14Z"/><path class="cls-1" d="M87.48,13.77l1.8-.77a2.59,2.59,0,0,0,1,1.06,3.79,3.79,0,0,0,3,0,1,1,0,0,0,.54-.9.83.83,0,0,0-.5-.8,3.83,3.83,0,0,0-.57-.23l-1.65-.43a5.86,5.86,0,0,1-2.18-.92A2.17,2.17,0,0,1,88.13,9a2.33,2.33,0,0,1,1-2,4.41,4.41,0,0,1,2.68-.73,5.23,5.23,0,0,1,2.15.39,3.91,3.91,0,0,1,1.52,1.27l-1.54.91a2.25,2.25,0,0,0-2.07-.94,2.37,2.37,0,0,0-1.24.28.86.86,0,0,0-.46.76.73.73,0,0,0,.32.64,3.83,3.83,0,0,0,1.18.44,18,18,0,0,1,2.85.87,2.77,2.77,0,0,1,1.09.9,2.33,2.33,0,0,1,.33,1.29,2.49,2.49,0,0,1-1,2.13,5.12,5.12,0,0,1-3.1.82Q88.53,16,87.48,13.77Z"/><path class="cls-1" d="M98.29,2.24a1.34,1.34,0,0,1,1,.34,1.21,1.21,0,0,1,.36.92,1.22,1.22,0,0,1-.36.93,1.33,1.33,0,0,1-1,.34,1.35,1.35,0,0,1-1-.34A1.24,1.24,0,0,1,97,3.5a1.19,1.19,0,0,1,.36-.91A1.36,1.36,0,0,1,98.29,2.24ZM97.23,15.81V6.5h2.1v9.31Z"/><path class="cls-1" d="M110,15.81l-.13-1.21a4.18,4.18,0,0,1-1.68,1.07,6.64,6.64,0,0,1-2.28.37,5.1,5.1,0,0,1-3.72-1.29,4.82,4.82,0,0,1-1.33-3.6,4.82,4.82,0,0,1,1.33-3.6,5.09,5.09,0,0,1,3.71-1.29,6.24,6.24,0,0,1,3,.7,2.34,2.34,0,0,1,.73.55V1.81h2.11v14Zm-3.7-7.72a3.33,3.33,0,0,0-2.49.9,3,3,0,0,0-.78,2.16,3,3,0,0,0,.78,2.17,3.36,3.36,0,0,0,2.5.89,3.32,3.32,0,0,0,2.5-.89,2.93,2.93,0,0,0,.79-2.13A3,3,0,0,0,108.8,9,3.33,3.33,0,0,0,106.28,8.09Z"/><path class="cls-1" d="M123.85,11.76h-8.57a2.52,2.52,0,0,0,.58,1.52,3.52,3.52,0,0,0,2.8,1,3.15,3.15,0,0,0,2.94-1.25l2,.37a3.34,3.34,0,0,1-1,1.44,7.07,7.07,0,0,1-8-.12,4.54,4.54,0,0,1-1.46-3.6,4.61,4.61,0,0,1,1.44-3.61,5.71,5.71,0,0,1,4-1.27,5.49,5.49,0,0,1,4.06,1.35A4.55,4.55,0,0,1,123.88,11Q123.88,11.15,123.85,11.76Zm-2-1.52a2.57,2.57,0,0,0-.47-1.31,3.39,3.39,0,0,0-2.77-1,3.24,3.24,0,0,0-2.83,1.13,2.43,2.43,0,0,0-.43,1.18Z"/><path class="cls-1" d="M130,15.81v-14h2.25V7.59h8.2V1.81h2.25v14h-2.25V9.54h-8.2v6.28Z"/><path class="cls-1" d="M155.32,11.76h-8.57a2.52,2.52,0,0,0,.58,1.52,3.52,3.52,0,0,0,2.8,1,3.15,3.15,0,0,0,2.94-1.25l2,.37a3.34,3.34,0,0,1-1,1.44,7.07,7.07,0,0,1-8-.12,4.54,4.54,0,0,1-1.46-3.6,4.61,4.61,0,0,1,1.44-3.61,5.71,5.71,0,0,1,4-1.27,5.49,5.49,0,0,1,4.06,1.35A4.55,4.55,0,0,1,155.35,11Q155.35,11.15,155.32,11.76Zm-2-1.52a2.57,2.57,0,0,0-.47-1.31,3.39,3.39,0,0,0-2.77-1,3.24,3.24,0,0,0-2.83,1.13,2.43,2.43,0,0,0-.43,1.18Z"/><path class="cls-1" d="M165.36,15.81l-.13-1.21a4.27,4.27,0,0,1-1.68,1.07,6.63,6.63,0,0,1-2.29.37,5.09,5.09,0,0,1-3.71-1.29,4.82,4.82,0,0,1-1.33-3.6,4.82,4.82,0,0,1,1.33-3.6,5.06,5.06,0,0,1,3.69-1.29,5.28,5.28,0,0,1,3.81,1.3l.1-1.07h1.91v9.31Zm-3.69-7.72a3.34,3.34,0,0,0-2.5.9,3,3,0,0,0-.78,2.16,3,3,0,0,0,.78,2.17,3.38,3.38,0,0,0,2.51.89,3.31,3.31,0,0,0,2.49-.89A2.93,2.93,0,0,0,165,11.2a3,3,0,0,0-.79-2.2A3.32,3.32,0,0,0,161.67,8.09Z"/><path class="cls-1" d="M169.18,15.81v-14h2.1v14Z"/><path class="cls-1" d="M173.8,8.35h-1.3V6.5h1.36L174,3.74l1.89-.31V6.5h2.26V8.35h-2.26v3.82a3.15,3.15,0,0,0,.23,1.51q.23.35,1,.35A6.63,6.63,0,0,0,178,14v1.88a9.56,9.56,0,0,1-1.55.15,2.48,2.48,0,0,1-2.21-.91,2.76,2.76,0,0,1-.37-1,12.28,12.28,0,0,1-.1-1.86Z"/><path class="cls-1" d="M179.28,15.81v-14h2.1V7.38A5.12,5.12,0,0,1,183,6.52a6.54,6.54,0,0,1,2-.26,4.11,4.11,0,0,1,3.7,1.58A3.2,3.2,0,0,1,189.09,9a10,10,0,0,1,.13,1.84v5h-2.1V11.1a3.72,3.72,0,0,0-.42-2,2.6,2.6,0,0,0-2.34-1,2.87,2.87,0,0,0-2.5,1,4,4,0,0,0-.48,2.27v4.43Z"/><path class="cls-1" d="M207.69,12.3l1.58,1.34A9.12,9.12,0,0,1,207.6,15,9,9,0,0,1,203,16.06a8.3,8.3,0,0,1-5.75-1.89,6.73,6.73,0,0,1-2-5.28,7.13,7.13,0,0,1,1.93-5.29,7.72,7.72,0,0,1,5.71-2,9.54,9.54,0,0,1,3.48.58A7.78,7.78,0,0,1,209.1,4l-1.48,1.38A6,6,0,0,0,203,3.53a5.4,5.4,0,0,0-4.16,1.55,5.4,5.4,0,0,0-1.3,3.83,5.09,5.09,0,0,0,1.23,3.64,5.69,5.69,0,0,0,4.35,1.56A5.77,5.77,0,0,0,207.69,12.3Z"/><path class="cls-1" d="M220.31,11.76h-8.57a2.52,2.52,0,0,0,.58,1.52,3.52,3.52,0,0,0,2.8,1,3.15,3.15,0,0,0,2.94-1.25l2,.37a3.34,3.34,0,0,1-1,1.44,7.07,7.07,0,0,1-8-.12,4.54,4.54,0,0,1-1.46-3.6,4.61,4.61,0,0,1,1.44-3.61,5.71,5.71,0,0,1,4-1.27,5.49,5.49,0,0,1,4.06,1.35A4.55,4.55,0,0,1,220.34,11Q220.34,11.15,220.31,11.76Zm-2-1.52a2.57,2.57,0,0,0-.47-1.31,3.39,3.39,0,0,0-2.77-1,3.24,3.24,0,0,0-2.83,1.13,2.43,2.43,0,0,0-.43,1.18Z"/><path class="cls-1" d="M221.77,15.81V6.5h1.91l.09.93a5.2,5.2,0,0,1,3.63-1.17,4.07,4.07,0,0,1,3.67,1.58A3.22,3.22,0,0,1,231.52,9a10.15,10.15,0,0,1,.13,1.84v5h-2.1V11.1a3.75,3.75,0,0,0-.42-2,2.55,2.55,0,0,0-2.31-1,2.82,2.82,0,0,0-2.47,1,4.3,4.3,0,0,0-.48,2.37v4.33Z"/><path class="cls-1" d="M233.89,8.35h-1.3V6.5H234l.12-2.76L236,3.43V6.5h2.26V8.35H236v3.82a3.14,3.14,0,0,0,.23,1.51c.15.23.49.35,1,.35a6.62,6.62,0,0,0,.93-.07v1.88a9.56,9.56,0,0,1-1.55.15,2.48,2.48,0,0,1-2.21-.91,2.76,2.76,0,0,1-.37-1,12.28,12.28,0,0,1-.1-1.86Z"/><path class="cls-1" d="M239.37,15.81V6.5h1.91l.09,1a4.57,4.57,0,0,1,3-1.08,7.79,7.79,0,0,1,1,.08v2a6,6,0,0,0-1.19-.13,2.65,2.65,0,0,0-2.31,1,4.14,4.14,0,0,0-.48,2.34v4.14Z"/><path class="cls-1" d="M256.48,11.76h-8.57a2.52,2.52,0,0,0,.58,1.52,3.52,3.52,0,0,0,2.8,1,3.15,3.15,0,0,0,2.94-1.25l2,.37a3.34,3.34,0,0,1-1,1.44,7.07,7.07,0,0,1-8-.12,4.54,4.54,0,0,1-1.46-3.6,4.61,4.61,0,0,1,1.44-3.61,5.72,5.72,0,0,1,4-1.27,5.5,5.5,0,0,1,4.06,1.35A4.55,4.55,0,0,1,256.52,11C256.52,11.08,256.5,11.35,256.48,11.76Zm-2-1.52A2.57,2.57,0,0,0,254,8.93a3.39,3.39,0,0,0-2.77-1,3.24,3.24,0,0,0-2.83,1.13,2.43,2.43,0,0,0-.43,1.18Z"/><polygon class="cls-2" points="17.63 6.48 11.15 6.48 11.15 0 6.48 0 6.48 6.48 0 6.48 0 11.15 6.48 11.15 6.48 17.63 11.15 17.63 11.15 11.15 17.63 11.15 17.63 6.48"/></svg>
